<svg width="88" height="88" viewBox="0 0 88 88" fill="none" xmlns="http://www.w3.org/2000/svg">
<g clip-path="url(#clip0_1_243)">
<path d="M55.7368 23.2031C55.611 22.6113 55.7254 21.9938 56.055 21.4864C56.3845 20.979 56.9021 20.6232 57.4939 20.4974L64.1881 19.0745C64.7799 18.9488 65.3974 19.0632 65.9048 19.3927C66.4123 19.7222 66.768 20.2398 66.8938 20.8316L69.621 33.6622C69.6424 33.7631 69.636 33.8679 69.6025 33.9655C69.5691 34.0631 69.5098 34.1498 69.4309 34.2163C69.3521 34.2828 69.2567 34.3268 69.1549 34.3434C69.053 34.36 68.9486 34.3486 68.8527 34.3106L63.4736 32.1714L59.4295 36.3135C59.3574 36.3873 59.2666 36.4401 59.1669 36.4664C59.0671 36.4926 58.9621 36.4913 58.863 36.4626C58.7639 36.4339 58.6745 36.3788 58.6042 36.3033C58.534 36.2278 58.4855 36.1346 58.464 36.0337L55.7368 23.2031Z" fill="#3772FF"/>
<path d="M57.5558 19.3182C57.6795 18.9374 57.9013 18.5958 58.1989 18.3279C58.4965 18.0599 58.8593 17.875 59.251 17.7918L65.9452 16.3689C66.537 16.2431 67.1545 16.3575 67.6619 16.6871C68.1694 17.0166 68.5251 17.5342 68.6509 18.126L71.3781 30.9565C71.3995 31.0574 71.3931 31.1623 71.3597 31.2598C71.3262 31.3574 71.2669 31.4441 71.188 31.5106C71.1092 31.5772 71.0138 31.6211 70.912 31.6377C70.8102 31.6543 70.7058 31.643 70.6099 31.6049L70.326 31.4927L67.5352 18.3631C67.4723 18.0672 67.2944 17.8084 67.0407 17.6437C66.787 17.4789 66.4782 17.4217 66.1823 17.4846L57.5558 19.3182Z" fill="#3772FF"/>
</g>
<g clip-path="url(#clip1_1_243)">
<path d="M7.88408 27.5884C11.4827 25.0977 16.7675 22.1132 22.1569 20.3893C27.9654 18.5296 33.1863 18.3388 36.7585 20.7933L46.0035 64.2877C41.3281 62.8094 35.9704 63.6077 31.1969 65.1354C26.0446 66.7903 21.0574 69.4409 17.297 71.8728L7.88408 27.5884ZM41.2213 19.8447C43.4864 16.1494 48.3336 14.2002 54.3962 13.5366C60.0209 12.9194 66.0627 13.4963 70.3633 14.3081L79.7762 58.5924C75.3473 57.9012 69.7166 57.5028 64.3386 58.0956C59.351 58.638 54.1354 60.0824 50.4663 63.3391L41.2213 19.8447ZM38.1324 16.2846C32.9331 13.439 26.4407 14.2313 20.7623 16.0446C14.1508 18.1636 7.82397 21.9292 3.98613 24.7647C3.63399 25.0249 3.36414 25.3809 3.20882 25.7902C3.05349 26.1995 3.01923 26.6449 3.11014 27.0732L13.5447 76.164C13.6242 76.5373 13.796 76.8847 14.0446 77.1744C14.2931 77.4641 14.6103 77.6868 14.9672 77.8222C15.3241 77.9575 15.7093 78.0011 16.0874 77.949C16.4655 77.8969 16.8245 77.7507 17.1315 77.5239C20.6883 74.9021 26.5736 71.4076 32.5871 69.481C38.7404 67.5107 44.2282 67.4124 47.8026 70.3376C48.067 70.5537 48.3767 70.7077 48.7087 70.7882C49.0406 70.8687 49.3864 70.8737 49.7206 70.8026C50.0547 70.7316 50.3686 70.5865 50.6391 70.3779C50.9096 70.1694 51.1299 69.9027 51.2836 69.5977C53.3591 65.4716 58.4125 63.3293 64.8308 62.6274C71.1124 61.9406 77.9147 62.7383 82.2259 63.6877C82.5986 63.77 82.986 63.7575 83.3526 63.6513C83.7193 63.5451 84.0534 63.3486 84.3244 63.0798C84.5954 62.8111 84.7946 62.4786 84.9038 62.1128C85.013 61.7471 85.0287 61.3598 84.9495 60.9864L74.5149 11.8957C74.4238 11.4674 74.2113 11.0745 73.9029 10.7637C73.5945 10.4529 73.2032 10.2375 72.7757 10.143C68.1164 9.1137 60.8049 8.24696 53.9031 9.00033C47.9772 9.64888 41.7248 11.5702 38.1324 16.2846Z" fill="#3772FF"/>
</g>
<defs>
<clipPath id="clip0_1_243">
<rect width="18.25" height="18.25" fill="white" transform="translate(52.5568 19.2147) rotate(-12)"/>
</clipPath>
<clipPath id="clip1_1_243">
<rect width="73" height="73" fill="white" transform="translate(0.738647 15.9162) rotate(-12)"/>
</clipPath>
</defs>
</svg>
