<svg width="69" height="60" viewBox="0 0 69 60" fill="none" xmlns="http://www.w3.org/2000/svg">
<path d="M32.7904 11.5804C34.7711 8.58878 38.8375 7.11624 43.8723 6.74238C48.5435 6.39428 53.5252 7.04609 57.0596 7.84188L63.5676 44.7504C59.9236 44.0507 55.2768 43.5584 50.8104 43.8934C46.6685 44.1981 42.3118 45.2424 39.1823 47.8307L32.7904 11.5804ZM30.3378 8.54593C26.1186 6.04153 20.7245 6.50942 15.9744 7.84556C10.4435 9.4076 5.10044 12.3402 1.84347 14.5751C1.54462 14.7801 1.31109 15.0668 1.17076 15.401C1.03043 15.7352 0.989227 16.1027 1.05206 16.4596L8.26639 57.3741C8.32134 57.6852 8.45349 57.9776 8.65073 58.2245C8.84797 58.4713 9.10399 58.6647 9.39534 58.787C9.6867 58.9092 10.0041 58.9564 10.3184 58.9242C10.6327 58.8921 10.9339 58.7815 11.1945 58.6027C14.2127 56.5365 19.1827 53.8155 24.2133 52.3953C29.3609 50.9431 33.9038 51.0203 36.7764 53.5435C36.9889 53.73 37.2407 53.8664 37.513 53.9426C37.7853 54.0188 38.0712 54.0328 38.3497 53.9837C38.6282 53.9346 38.8921 53.8236 39.1219 53.6589C39.3517 53.4942 39.5416 53.2799 39.6776 53.032C41.5139 49.6784 45.7564 48.0521 51.0866 47.6568C56.3033 47.2701 61.9078 48.1266 65.4471 49.0366C65.753 49.1154 66.0739 49.1163 66.3803 49.039C66.6866 48.9618 66.9687 48.8089 67.2007 48.5943C67.4327 48.3798 67.6071 48.1105 67.708 47.8111C67.8089 47.5116 67.8331 47.1917 67.7783 46.8805L60.564 5.96603C60.501 5.60912 60.3366 5.27789 60.0904 5.01188C59.8443 4.74586 59.5267 4.5563 59.1758 4.46583C55.3508 3.47965 49.3271 2.55137 43.5954 2.97524C38.6741 3.34058 33.446 4.74951 30.3378 8.54593Z" fill="#3772FF"/>
</svg>
